# xmcd
#
# Track frame offsets:
#	187
#	19382
#	40140
#	64780
#	91305
#	109672
#	130522
#	151895
#	174162
#	199597
#
# Disc length: 2957 seconds
#
# Revision: 1
# Processed by: cddbd v1.4PL0 Copyright (c) Steve Scherf et al.
# Submitted via: EasyCDDAExtractor 5.0.7
#
DISCID=740b8b0a
DTITLE=Various Artist - Tinh Lo
DYEAR=1900
DGENRE=
TTITLE0=Tuan Vu - Tinh Lo
TTITLE1=Phuong Mai - Tinh Bau Muon Thoi
TTITLE2=Phuong Mai and Tuan Vu - Hoa Trinh Nu
TTITLE3=Phuong Mai - Sao Anh No Vo Tinh
TTITLE4=Phuong Mai and Tuan Vu - Duong Ve Khuya
TTITLE5=Phuong Mai - Tam Su Ngay Cuoi
TTITLE6=Tuan Vu - Tinh chi dep khi con dang do
TTITLE7=Phuong Mai - Cho toi song lai
TTITLE8=Phuong Mai and Tuan Vu - Dam cuoi dau xuan
TTITLE9=Phuong Mai - Nhung chuyen xe trong cuoc doi
EXTD=
EXTT0=
EXTT1=
EXTT2=
EXTT3=
EXTT4=
EXTT5=
EXTT6=
EXTT7=
EXTT8=
EXTT9=
PLAYORDER=
